<svg id="Layer_1" data-name="Layer 1" xmlns="http://www.w3.org/2000/svg" viewBox="0 0 1200 1200"><defs><style>.cls-1{fill:#97cc04;}.cls-2{fill:#e34941;}.cls-3{fill:#eeb902;}.cls-4{fill:#0053ba;}</style></defs><title>Logo_Logomark</title><path class="cls-1" d="M424.24,528.85v160.7a20.66,20.66,0,0,0,10.33,17.89l140.81,81.3a4.72,4.72,0,0,0,7.07-4.08V621.87a20.66,20.66,0,0,0-10.52-18L431.26,524.75A4.71,4.71,0,0,0,424.24,528.85Z"/><path class="cls-2" d="M750.22,483.78,610.32,403a20.64,20.64,0,0,0-20.65,0L449,484.23a4.72,4.72,0,0,0,.05,8.19L590.57,572a20.66,20.66,0,0,0,20.41-.1l139.23-80A4.71,4.71,0,0,0,750.22,483.78Z"/><path class="cls-3" d="M768.7,523.89l-139,79.84a20.65,20.65,0,0,0-10.37,17.9v162a4.71,4.71,0,0,0,7.07,4.08l139-80.25a20.66,20.66,0,0,0,10.33-17.89V528A4.71,4.71,0,0,0,768.7,523.89Z"/><path class="cls-4" d="M338.35,741.46V458.54a16.62,16.62,0,0,1,8.32-14.4l245-141.46a16.65,16.65,0,0,1,16.64,0L839.16,436a12.43,12.43,0,0,0,12.53-.05l114.67-67.4a6.29,6.29,0,0,0-.05-10.87L612.49,153.35a25,25,0,0,0-25,0L219.44,365.85a25,25,0,0,0-12.5,21.64v425a25,25,0,0,0,12.5,21.64l108.5,62.64a7,7,0,0,0,10.44-6v-149C338.37,741.69,338.35,741.58,338.35,741.46Z"/><path class="cls-4" d="M861.65,473.84V741.46a16.62,16.62,0,0,1-8.32,14.4l-245,141.46a16.65,16.65,0,0,1-16.64,0L430.21,804.1a5.24,5.24,0,0,0-7.87,4.54v136a11.48,11.48,0,0,0,5.74,9.94l159.42,92a25,25,0,0,0,25,0l368.07-212.5a25,25,0,0,0,12.5-21.64V399.73a5.76,5.76,0,0,0-8.68-5L867.63,463.39A12.11,12.11,0,0,0,861.65,473.84Z"/></svg>