<svg id="Layer_1" data-name="Layer 1" xmlns="http://www.w3.org/2000/svg" viewBox="0 0 1200 400"><defs><style>.cls-1{fill:#fff;}</style></defs><title>Logo_White</title><path class="cls-1" d="M590.18,193.12v-28c0-1.36,0-2.72.1-4.07.2-2.17,1.34-3.38,3.64-3.36,3.23,0,6.46-.1,9.68,0,3.82.12,4.43.69,4.48,4.53.1,6.79,0-.68,0,6.11,0,2.34.27,7.74.42,10.09,2.09-.93,4.18-1.88,6.27-2.8a31.94,31.94,0,0,1,20.86-2.2c6.71,1.62,11,5.79,12.54,12.58a33.45,33.45,0,0,1,.74,7.06c.07,13.92,0,27.84,0,41.76,0,.85,0,1.71,0,2.55-.31,3-1.13,3.89-4.13,4-3.22.12-6.46.13-9.68,0-2.71-.11-3.61-1-4-3.66a32.44,32.44,0,0,1-.11-4.07c0-12.22,0-24.44,0-36.67,0-7.57-2-9.29-9.55-8.55-4.34.42-8.08,2.41-11.74,4.61-1.78,1.08-1.66,2.78-1.66,4.49q0,15.78,0,31.58c0,2.54.08,5.09,0,7.63-.15,3.73-.92,4.55-4.47,4.66-3.06.1-6.12.11-9.17,0s-3.84-.95-4.19-3.95a34.56,34.56,0,0,1-.08-4.07Z"/><path class="cls-1" d="M454.4,207.13c0-4.75-.11-9.5,0-14.25.26-10.17,4.93-16.07,14.76-18.68a51.85,51.85,0,0,1,24.7-.4c10.7,2.37,15.43,8.38,15.63,19.45.09,4.41.07,8.82,0,13.23s-.62,5.06-5,5.1c-8.49.08-17,0-25.46,0s-7.18-1-7.3,7.29c0,1,0,2,.05,3.05.29,3.45,1.78,5.43,5,6.24a22.7,22.7,0,0,0,11.08,0c3.2-.79,4.66-3,5.12-6.22.6-4.23,1-4.51,5-4.65a58.48,58.48,0,0,1,7.13.06c3.32.27,4.08,1.2,4.2,4.48.34,9.06-4.1,15.76-12.82,18.5a47.11,47.11,0,0,1-30-.43c-7.56-2.58-11.54-8.16-12-16.05-.29-5.58-.06-11.19-.06-16.79Zm27.83-7.57c1.52,0,3.06.1,4.57,0,2-.17,3.9-.52,5.85-.8a57.87,57.87,0,0,0-.17-7.46A5.3,5.3,0,0,0,488,187a30,30,0,0,0-7-.68c-7,.17-9.39,2.77-9.19,9.71.1,3.39.13,3.47,3.35,3.56C477.5,199.61,479.87,199.56,482.23,199.56Z"/><path class="cls-1" d="M993.41,207.76c0,4.07,0,8.14,0,12.21-.08,11.76-4.28,17.58-15.53,20.73a50.07,50.07,0,0,1-28.57-.29c-9.93-3-14.29-8.55-14.64-18.91-.32-9.32-.31-18.66,0-28C935,183,940,177,950.25,174.31a53.92,53.92,0,0,1,27.66,0c10.6,2.76,15.32,8.9,15.49,19.72C993.46,198.6,993.41,203.18,993.41,207.76Zm-17.62-.14c0-4.23.1-8.46,0-12.69-.12-4-1.74-6.24-5.17-7.24a22.19,22.19,0,0,0-13,0c-3,.94-5,3-5,6.28q-.09,13.44,0,26.89a6.43,6.43,0,0,0,4.81,6.43,20.87,20.87,0,0,0,12,.37c4.59-1.16,6.2-3.09,6.36-7.85C975.89,215.74,975.79,211.68,975.79,207.62Z"/><path class="cls-1" d="M796.36,207.27q0,13.23,0,26.47a27.46,27.46,0,0,1-.13,4.06c-.39,2.64-1.28,3.44-4,3.57-2.54.12-5.09.06-7.63,0-4,0-4,0-5.54-4.12-.65-1.77-1.44-1.4-2.6-.57a30.81,30.81,0,0,1-19.63,5.74c-11.45-.42-18.39-7.21-18.52-18.62-.16-14.92-.07-29.85,0-44.78,0-4.71.68-5.38,5.18-5.5,2.89-.08,5.78-.13,8.65,0,2.72.16,3.56,1.09,3.83,3.78a35.2,35.2,0,0,1,.05,3.56c0,12.38,0,24.77,0,37.15,0,7.61,2.57,9.74,10.06,8.45a37.68,37.68,0,0,0,5.84-1.67c4.64-1.62,6.78-4.44,6.55-9.86-.49-11.35-.15-22.73-.15-34.09,0-1.19.05-2.38,0-3.56-.08-2.28,1-3.63,3.24-3.71,3.73-.13,7.46-.11,11.19,0,2.2.07,3.35,1.48,3.54,3.61.11,1.35.09,2.71.09,4.07Q796.37,194.3,796.36,207.27Z"/><path class="cls-1" d="M811.83,207.52q0-13.49,0-27c0-6.85.16-7,7.24-7h3.56c4.67.06,4.74,0,6.45,4.49.57,1.49,1.27,1.25,2.23.6a35.63,35.63,0,0,1,15-5.79,26.27,26.27,0,0,1,12.07.94c6.5,2.09,10.55,6.62,11.65,13.47a49.46,49.46,0,0,1,.59,7.59c.06,13.07,0,26.14,0,39.21a26.57,26.57,0,0,1-.31,4.55,3.06,3.06,0,0,1-3.16,2.76c-3.73.05-7.46.06-11.19,0a3,3,0,0,1-3.24-3.19c-.07-1.18-.06-2.37-.06-3.56,0-12.39-.14-24.78,0-37.17.14-9.32-3.6-9.89-10.2-8.83-3.88.63-7.53,2.83-11.22,4.45-2.14.94-1.88,3-1.88,4.87,0,11.88-.05,23.76,0,35.64,0,8.41-.29,7.91-7.8,7.85-1.87,0-3.74.07-5.6,0-3.37-.17-4-.84-4.21-4.34-.11-2,0-4.07,0-6.11Z"/><path class="cls-1" d="M722.05,173.74c0,10,0,33.26,0,43.26,0,15.46-5.65,22.24-21,24.86a48.09,48.09,0,0,1-23.12-1.46c-9.57-3.08-14.47-9.56-14.87-19.55-.11-2.71-.14-5.43,0-8.13.14-2.87.92-3.77,3.6-3.9,3.55-.17,7.12-.17,10.68,0,2.74.13,3.3.92,3.54,3.9a59.31,59.31,0,0,0,.67,7.57c1.05,4.79,5.5,7.21,12.06,6.9,6-.28,8.83-2.44,9.63-7.69a43.94,43.94,0,0,0,.41-6.59c0-19,0-27.79,0-46.78,0-7,.06-7,7.11-7.05,2.37,0,4.75-.08,7.12,0,3,.15,3.82,1,4.12,4a35.23,35.23,0,0,1,0,3.56C722.05,176.83,722.05,163.57,722.05,173.74Z"/><path class="cls-1" d="M1032,242.46a39.66,39.66,0,0,1-16.39-3c-6.68-2.92-10.4-7.93-10.68-15.35-.15-4.21.63-5.17,4.72-5.27,2.72-.06,5.43,0,8.15,0,2.27,0,3.31,1.1,3.65,3.33.93,5.92,2.1,7.12,8.12,7.29a46.5,46.5,0,0,0,10-1.05c2.44-.47,3.48-2.45,3.58-4.93s-.51-4.4-2.83-5.48a48,48,0,0,0-4.71-1.93c-5.29-1.82-10.61-3.56-15.92-5.36-4.27-1.45-8-3.6-10.55-7.53-6.35-9.78-2.4-23.54,8.39-27.82a40.37,40.37,0,0,1,30.32,0c7.57,3,11.23,9.25,10.72,17.29-.18,2.86-.73,3.56-3.67,3.73a80.51,80.51,0,0,1-8.65,0c-2.83-.14-3.43-.86-3.81-3.71-.79-6-1.94-7.14-8-7.34a36.17,36.17,0,0,0-7.55.65,4.72,4.72,0,0,0-4,4.65c-.22,2.56.44,4.74,2.91,6a26,26,0,0,0,3.31,1.28c5.16,1.71,10.35,3.3,15.46,5.13a62.26,62.26,0,0,1,8.37,3.67c3.29,1.76,5.83,4.64,6.21,8.27a49.29,49.29,0,0,1-.31,13.62c-1,5.64-5.32,8.87-10.4,11A41,41,0,0,1,1032,242.46Z"/><path class="cls-1" d="M407.47,228.25c0-11,0-37.33,0-48.35,0-4.5,0-4.52-4.35-4.55-4.75,0-9.5.07-14.25,0-3.27-.08-3.83-.68-4-3.91-.12-2.71,0-5.43,0-8.14,0-2.05,1.16-3.09,3.2-3.13l3.05,0h50.88c1.19,0,2.38,0,3.56.08a2.88,2.88,0,0,1,2.76,2.53,8.62,8.62,0,0,1,.15,1c1.4,10.6.49,11.64-10.15,11.64-3.22,0-6.44,0-9.67,0-1.89,0-2.86.7-2.8,2.67,0,1.18,0,2.37,0,3.56V236c-.05,6.12-.33,6.4-6.22,6.44-2.72,0-5.44.08-8.14,0-3-.12-3.81-1-4.05-4-.1-1.35,0-2.71,0-4.06Z"/><path class="cls-1" d="M522.5,206.87c0-5.26-.12-10.52,0-15.78.22-7.83,4.22-13.21,11.49-15.8a46.57,46.57,0,0,1,32.91.16c9.82,3.74,11.55,12,11.1,19.7a2.7,2.7,0,0,1-3,2.77c-3.73,0-7.46,0-11.2,0a2.43,2.43,0,0,1-2.58-2.55c0-.85-.06-1.7-.19-2.54-.44-2.82-2.08-4.85-4.84-5.22a40.93,40.93,0,0,0-10.07-.24c-4.34.52-5.75,2.46-6.06,6.79,0,.17,0,.34,0,.51,0,8.49-.07,17,0,25.47.06,5.06,1.84,7.2,6.79,7.86a27.77,27.77,0,0,0,8.09-.15c4.22-.71,5.74-2.63,6.18-6.86.08-.85.06-1.7.11-2.55a2.45,2.45,0,0,1,2.59-2.56c3.73-.08,7.47-.1,11.2,0,2.1,0,2.81,1.35,3,3.33,1.2,11.44-4.9,19.86-16.27,22.18a52.81,52.81,0,0,1-22.73,0,33,33,0,0,1-8.05-3,15.06,15.06,0,0,1-8.36-13.13c-.26-6.1-.06-12.22-.06-18.33Z"/><path class="cls-1" d="M890.42,207.75c0-5.43.05-10.86,0-16.29,0-3-.17-3-3.26-3.18-.67,0-1.36,0-2,0-3.85-.23-4.62-1-4.79-4.95,0-.34,0-.68,0-1-.09-7-.1-7.07,7.05-8,2.43-.31,3.14-1.46,3.08-3.68-.08-3.05-.11-6.11,0-9.16.14-2.87.89-3.69,3.66-3.81,3.56-.15,7.13,0,10.69,0a2.83,2.83,0,0,1,3.16,3.14c0,3.4.11,6.79,0,10.18,0,2.14.81,3.15,3,3.09s4.41,0,6.62,0c6.25,0,6.35.14,6.38,6.16,0,1,0,2,0,3.05-.14,4.17-.87,4.9-5.19,5-2.55.07-5.09.06-7.64,0-2,0-3.17.47-3.15,2.84.09,9.16-.09,18.32.1,27.48.11,5.15,2.36,7.25,7.56,7.73,2,.18,4.08.05,6.1.26,2.68.27,3.51,1.17,3.93,3.81,0,.16,0,.34,0,.5,1,9.45,0,10.73-9.42,10.48a72.43,72.43,0,0,1-11.1-1.07c-9.39-1.7-14.21-7.21-14.65-16.76-.25-5.25-.05-10.52-.05-15.78Z"/><path class="cls-1" d="M200.3,180.43v44.21a5.68,5.68,0,0,0,2.84,4.92l38.74,22.36a1.29,1.29,0,0,0,1.94-1.12V206a5.69,5.69,0,0,0-2.9-5L202.23,179.3A1.29,1.29,0,0,0,200.3,180.43Z"/><path class="cls-1" d="M290,168l-38.49-22.22a5.65,5.65,0,0,0-5.68,0l-38.7,22.34a1.29,1.29,0,0,0,0,2.25l38.94,21.9a5.64,5.64,0,0,0,5.61,0l38.3-22A1.29,1.29,0,0,0,290,168Z"/><path class="cls-1" d="M295.06,179.06l-38.24,22A5.71,5.71,0,0,0,254,206v44.56a1.3,1.3,0,0,0,1.95,1.13l38.24-22.08a5.68,5.68,0,0,0,2.84-4.92V180.18A1.29,1.29,0,0,0,295.06,179.06Z"/><path class="cls-1" d="M176.67,238.92V161.08a4.59,4.59,0,0,1,2.28-4l67.41-38.92a4.62,4.62,0,0,1,4.58,0l63.5,36.67a3.43,3.43,0,0,0,3.45,0l31.55-18.55a1.73,1.73,0,0,0,0-3l-97.33-56.2a6.88,6.88,0,0,0-6.88,0L144,135.58a6.88,6.88,0,0,0-3.44,6V258.46a6.88,6.88,0,0,0,3.44,6l29.85,17.23a1.91,1.91,0,0,0,2.87-1.66V238.92Z"/><path class="cls-1" d="M320.63,165.29v73.63a4.57,4.57,0,0,1-2.29,4l-67.4,38.92a4.62,4.62,0,0,1-4.58,0l-44.42-25.65a1.45,1.45,0,0,0-2.17,1.25v37.42a3.17,3.17,0,0,0,1.58,2.74l43.86,25.32a6.88,6.88,0,0,0,6.88,0l101.26-58.46a6.89,6.89,0,0,0,3.43-6V144.9a1.59,1.59,0,0,0-2.39-1.36l-32.11,18.88A3.33,3.33,0,0,0,320.63,165.29Z"/></svg>